# xmcd
#
# Track frame offsets:
#	150
#	12433
#	32557
#	47425
#	59394
#	77616
#	91400
#	105949
#	127553
#	140565
#	151623
#	162531
#	177472
#	188843
#	200896
#
# Disc length: 2839 seconds
#
# Revision: 1
# Processed by: cddbd v1.5.1PL0 Copyright (c) Steve Scherf et al.
# Submitted via: audiograbber 1.83.01
#
DISCID=b90b150f
DTITLE=Various Artist - Working On A Chain Gang - Five Long Years
DYEAR=2005
DGENRE=Blues
TTITLE0=John Lee Hooker - I'm In The Mood
TTITLE1=Howlin' Wolf - Goin' Down Slow
TTITLE2=Muddy Waters - You Gonna Miss Me When I'm Gone
TTITLE3=Ike and Tina Turner - A Fool In Love
TTITLE4=Lghtning Slim - Hoodoo Blues
TTITLE5=Leadbelly - Where Did You Sleep Last Night
TTITLE6=Lightnin' Hopkins - Santa Fe Blues
TTITLE7=Brownie Meghee and Sonny Terry - Blues For The Lowlands
TTITLE8=Mississippi John Hurt - Nobody's Dirty Business
TTITLE9=Big Joe Williams - Sinking Blues
TTITLE10=Dale Hawkins - Susie Q
TTITLE11=Bb King - BBs Boogie
TTITLE12=Arthur Bigboy Crudup - My Baby Left Me
TTITLE13=Bukka White - Parchman Farm Blues
TTITLE14=Robert Johnson - Cross Road blues
EXTD=
EXTT0=
EXTT1=
EXTT2=
EXTT3=
EXTT4=
EXTT5=
EXTT6=
EXTT7=
EXTT8=
EXTT9=
EXTT10=
EXTT11=
EXTT12=
EXTT13=
EXTT14=
PLAYORDER=
